<?xml version="1.0" encoding="UTF-8"?>
<svg id="Layer_1" data-name="Layer 1" xmlns="http://www.w3.org/2000/svg" viewBox="0 0 800 800">
  <defs>
    <style>
      .cls-1, .cls-2 {
        stroke-width: 0px;
      }

      .cls-2 {
        fill: #00aeef;
      }
    </style>
  </defs>
  <g>
    <path class="cls-1" d="m143.33,306.47c5.12,9.17,8.82,14.11,10.93,16.4v.35h-71.26v-.35c0-2.29-1.59-7.58-6.35-15.87l-9.38-16.58h-9.5l18.35,32.45v.35H6.81v-.35c2.12-2.29,5.64-7.23,10.93-16.4l29.45-51.54-18.34-32.42,51.5-25.57h.35l62.61,109.53h0Zm-77.85-19.22l-16.96-29.98-4.8,8.29,12.26,21.68h9.5Z"/>
    <path class="cls-1" d="m267.49,310.53c0,6.88,1.94,10.58,3.88,12.35v.35h-57.15v-.35c1.06-1.76,2.12-5.47,2.12-12.35v-60.5c0-3.35-1.76-5.12-4.58-5.12-.5,0-.97.06-1.41.17v65.44c0,6.88,1.06,10.58,2.12,12.35v.35h-57.14v-.35c1.94-1.76,3.88-5.47,3.88-12.35v-64.91c0-6.88-2.12-10.58-4.23-12.35v-.35l55.03-2.12-.64,12.56c8.34-8.46,19.52-14.67,33.44-14.67,12.7,0,24.69,5.29,24.69,25.22v56.62h0Z"/>
    <path class="cls-1" d="m327.98,237.29v61.56c0,11.29,1.23,16.4,9.88,16.76v.35c-4.06,6.35-13.23,13.76-30.69,13.76-30.34,0-30.34-25.54-30.34-36.12v-56.3h-7.23v-.35l58.03-31.04h.35v29.28h9.88v2.12h-9.88Z"/>
    <path class="cls-1" d="m449.32,310.53c0,6.88,1.94,10.58,3.88,12.35v.35h-57.15v-.35c1.06-1.76,2.12-5.47,2.12-12.35v-60.5c0-3.35-1.76-5.12-4.58-5.12-.5,0-.97.06-1.41.17v65.44c0,6.88,1.06,10.58,2.12,12.35v.35h-57.14v-.35c1.94-1.76,3.88-5.47,3.88-12.35v-109.18c0-6.88-2.12-10.58-4.23-12.35v-.35l55.38-2.12-.68,56.52c8.31-8.3,19.39-14.37,33.14-14.37,12.7,0,24.69,5.29,24.69,25.22v56.62h0Z"/>
    <path class="cls-1" d="m454.25,277.02c0-29.28,20.81-48.33,55.03-48.33s55.03,19.05,55.03,48.33-20.64,48.33-55.03,48.33-55.03-19.23-55.03-48.33Zm58.2-1.06c-11.46-35.1-15.17-43.56-17.46-42.86s-.35,9.88,11.11,44.98c11.46,35.1,15.17,43.57,17.46,42.86,2.29-.71.35-9.88-11.11-44.98Z"/>
    <path class="cls-1" d="m677.54,310.53c0,6.88,1.94,10.58,3.88,12.35v.35h-57.15v-.35c1.06-1.76,2.12-5.47,2.12-12.35v-60.5c0-3.35-1.76-5.12-4.58-5.12-.5,0-.97.06-1.41.17v65.44c0,6.88,1.06,10.58,2.12,12.35v.35h-57.14v-.35c1.94-1.76,3.88-5.47,3.88-12.35v-64.91c0-6.88-2.12-10.58-4.23-12.35v-.35l55.03-2.12-.64,12.56c8.34-8.46,19.52-14.67,33.44-14.67,12.7,0,24.69,5.29,24.69,25.22v56.62h0Z"/>
  </g>
  <g>
    <path class="cls-1" d="m292.07,439.67c.71,3.53,2.47,10.41,6.17,12.52v.35c-3.88,2.47-16.58,6.7-36.16,6.7-30.34,0-33.69-11.11-35.63-26.46l-4.21-34.57h-1.25v32.98c0,13.76,1.76,21.17,3.53,24.87v.35h-73.02v-.35c3.88-3.7,7.76-11.11,7.76-24.87v-73.02c0-13.76-3.88-21.17-7.76-24.87v-.35h80.96c20.46,0,57.15,0,57.15,31.04s-43.38,32.39-65.43,34.13v.96c12.7-.71,22.93-1.41,36.16-.18,20.64,1.94,26.46,12.17,29.1,26.46l2.65,14.29h0Zm-71.08-43.56c4.76,0,7.05-14.99,7.05-30.16s-2.47-30.87-7.05-30.87v61.03Z"/>
    <path class="cls-1" d="m403,413.21c-5.29,25.4-22.93,45.33-56.26,45.33s-53.09-21.17-53.09-47.97c0-29.81,23.46-48.5,54.15-48.5,35.63,0,53.79,17.29,47.97,46.74h-48.23c6.14,6.76,15.03,10.93,27.41,10.93,7.59,0,17.64-1.76,27.69-6.53h.36Zm-66.67-46.92c-3.88,0-.35,17.46,2.12,25.22,1.63,5.76,4.06,10.99,7.45,15.34.88-15.42-3.49-40.56-9.57-40.56h0Z"/>
    <path class="cls-1" d="m574.62,441.7c.15,5.69,1.21,8.74,6.32,8.9v.35c-6,4.23-14.46,6.88-28.04,6.88-12.49,0-23.6-1.93-26.84-10.21-.53-1.36-2.32-1.61-3.3-.52-6.56,7.3-15.48,11.44-25.77,11.44-21.69,0-32.81-15.35-32.81-40.92,0-35.1,21.17-55.74,57.85-55.74h2.12l-.62-28.75c-.46-5.75-2.39-8.97-4.31-10.57v-.71l53.86-2.04c1.12-.04,2.05.86,2.04,1.98l-.5,119.92h0Zm-50.47-70.9c0-2.33-3.36-2.74-3.89-.47-2.23,9.59-2.99,27.55-2.99,42.71,0,13.42,1,24.28,3.16,28.75.9,1.86,3.72,1.16,3.72-.91v-70.07Z"/>
  </g>
  <g>
    <path class="cls-1" d="m392.29,571.26c5.12,9.17,8.82,14.11,10.93,16.4v.35h-71.26v-.35c0-2.29-1.59-7.58-6.35-15.87l-9.38-16.58h-9.5l18.35,32.45v.35h-69.31v-.35c2.12-2.29,5.64-7.23,10.93-16.4l29.45-51.54-18.34-32.42,51.5-25.57h.35l62.61,109.53h0Zm-77.85-19.22l-16.96-29.98-4.8,8.29,12.26,21.69h9.5Z"/>
    <path class="cls-1" d="m459.3,366.3v209.02c0,6.88,1.94,10.58,3.88,12.35v.35h-58.91v-.35c1.94-1.76,3.88-5.47,3.88-12.35v-190.9"/>
    <path class="cls-1" d="m519.62,448.48v126.84c0,6.88,1.94,10.58,3.88,12.35v.35h-58.91v-.35c1.94-1.76,3.88-5.47,3.88-12.35v-109.18"/>
    <path class="cls-1" d="m633.91,544.81c-5.29,25.4-22.93,45.33-56.26,45.33s-53.09-21.17-53.09-47.98c0-29.81,23.46-48.5,54.15-48.5,35.63,0,53.79,17.28,47.97,46.74h-48.23c6.14,6.76,15.03,10.93,27.41,10.93,7.59,0,17.64-1.76,27.69-6.53h.36Zm-66.67-46.92c-3.88,0-.35,17.46,2.12,25.22,1.63,5.76,4.06,10.99,7.45,15.34.88-15.42-3.49-40.56-9.57-40.56h0Z"/>
    <path class="cls-1" d="m744.14,575.32c0,6.88,1.94,10.58,3.88,12.35v.35h-57.15v-.35c1.06-1.76,2.12-5.47,2.12-12.35v-60.5c0-3.35-1.76-5.11-4.58-5.11-.5,0-.97.06-1.41.17v65.44c0,6.88,1.06,10.58,2.12,12.35v.35h-57.14v-.35c1.94-1.76,3.88-5.47,3.88-12.35v-64.91c0-6.88-2.12-10.58-4.23-12.35v-.35l55.03-2.12-.64,12.56c8.34-8.46,19.52-14.67,33.44-14.67,12.7,0,24.69,5.29,24.69,25.22v56.62h0Z"/>
  </g>
  <path class="cls-1" d="m795.1,230.81v.35c-1.94,1.76-4.94,5.29-9.17,12.35l-53.16,87.43-.45,1.63c-5.11,14.64-14.64,36.15-35.1,36.15-12.7,0-20.46-8.29-20.46-20.99,0-7.05,1.59-16.05,7.58-23.63h.18c.71,2.82,3.35,4.94,8.11,4.94h38.9l2.4-3.98-49.59-81.56c-4.23-6.88-7.23-10.58-9.17-12.35v-.35h58.02v.35c0,1.76,1.06,5.47,5.11,11.99l22.61,37.52,3.43-5.62-26.57-43.88v-.35h57.32Z"/>
  <path class="cls-2" d="m397.82,349.34c0-15.17,12.17-27.34,27.34-27.34s27.34,12.17,27.34,27.34-12.17,27.34-27.34,27.34-27.34-12.17-27.34-27.34Z"/>
</svg>